<mxfile host="app.diagrams.net" agent="Mozilla/5.0 (Macintosh; Intel Mac OS X 10_15_7) AppleWebKit/605.1.15 (KHTML, like Gecko) Version/17.5 Safari/605.1.15" version="24.7.17">
  <diagram name="Page-1" id="GKagwym0Konz_H8gzAiX">
    <mxGraphModel dx="989" dy="570" grid="1" gridSize="10" guides="1" tooltips="1" connect="1" arrows="1" fold="1" page="1" pageScale="1" pageWidth="850" pageHeight="1100" math="0" shadow="0">
      <root>
        <mxCell id="0" />
        <mxCell id="1" parent="0" />
        <mxCell id="kelTFFc9wOcEyzuVwa0B-3" style="edgeStyle=orthogonalEdgeStyle;rounded=0;orthogonalLoop=1;jettySize=auto;html=1;startArrow=classic;startFill=1;" edge="1" parent="1" source="kelTFFc9wOcEyzuVwa0B-1" target="kelTFFc9wOcEyzuVwa0B-2">
          <mxGeometry relative="1" as="geometry" />
        </mxCell>
        <mxCell id="kelTFFc9wOcEyzuVwa0B-8" value="CAN&lt;div&gt;Bus&lt;/div&gt;" style="edgeLabel;html=1;align=center;verticalAlign=middle;resizable=0;points=[];" vertex="1" connectable="0" parent="kelTFFc9wOcEyzuVwa0B-3">
          <mxGeometry x="-0.1253" y="-2" relative="1" as="geometry">
            <mxPoint as="offset" />
          </mxGeometry>
        </mxCell>
        <mxCell id="kelTFFc9wOcEyzuVwa0B-7" style="edgeStyle=orthogonalEdgeStyle;rounded=0;orthogonalLoop=1;jettySize=auto;html=1;entryX=0.5;entryY=0;entryDx=0;entryDy=0;" edge="1" parent="1" source="kelTFFc9wOcEyzuVwa0B-1" target="kelTFFc9wOcEyzuVwa0B-6">
          <mxGeometry relative="1" as="geometry" />
        </mxCell>
        <mxCell id="kelTFFc9wOcEyzuVwa0B-9" value="WiFi" style="edgeLabel;html=1;align=center;verticalAlign=middle;resizable=0;points=[];" vertex="1" connectable="0" parent="kelTFFc9wOcEyzuVwa0B-7">
          <mxGeometry x="-0.1839" y="1" relative="1" as="geometry">
            <mxPoint as="offset" />
          </mxGeometry>
        </mxCell>
        <mxCell id="kelTFFc9wOcEyzuVwa0B-18" style="edgeStyle=orthogonalEdgeStyle;rounded=0;orthogonalLoop=1;jettySize=auto;html=1;entryX=0.5;entryY=1;entryDx=0;entryDy=0;" edge="1" parent="1" source="kelTFFc9wOcEyzuVwa0B-1" target="kelTFFc9wOcEyzuVwa0B-17">
          <mxGeometry relative="1" as="geometry" />
        </mxCell>
        <mxCell id="kelTFFc9wOcEyzuVwa0B-19" value="WiFi" style="edgeLabel;html=1;align=center;verticalAlign=middle;resizable=0;points=[];" vertex="1" connectable="0" parent="kelTFFc9wOcEyzuVwa0B-18">
          <mxGeometry x="-0.2611" y="1" relative="1" as="geometry">
            <mxPoint as="offset" />
          </mxGeometry>
        </mxCell>
        <mxCell id="kelTFFc9wOcEyzuVwa0B-1" value="Base Station Firmware&lt;div&gt;(Arduino c++)&lt;br&gt;&lt;/div&gt;" style="whiteSpace=wrap;html=1;aspect=fixed;" vertex="1" parent="1">
          <mxGeometry x="280" y="380" width="80" height="80" as="geometry" />
        </mxCell>
        <mxCell id="kelTFFc9wOcEyzuVwa0B-5" style="edgeStyle=orthogonalEdgeStyle;rounded=0;orthogonalLoop=1;jettySize=auto;html=1;startArrow=classic;startFill=1;" edge="1" parent="1" source="kelTFFc9wOcEyzuVwa0B-2" target="kelTFFc9wOcEyzuVwa0B-4">
          <mxGeometry relative="1" as="geometry" />
        </mxCell>
        <mxCell id="kelTFFc9wOcEyzuVwa0B-20" value="c++ class" style="edgeLabel;html=1;align=center;verticalAlign=middle;resizable=0;points=[];" vertex="1" connectable="0" parent="kelTFFc9wOcEyzuVwa0B-5">
          <mxGeometry x="-0.046" y="2" relative="1" as="geometry">
            <mxPoint as="offset" />
          </mxGeometry>
        </mxCell>
        <mxCell id="kelTFFc9wOcEyzuVwa0B-13" style="edgeStyle=orthogonalEdgeStyle;rounded=0;orthogonalLoop=1;jettySize=auto;html=1;" edge="1" parent="1" source="kelTFFc9wOcEyzuVwa0B-2" target="kelTFFc9wOcEyzuVwa0B-11">
          <mxGeometry relative="1" as="geometry" />
        </mxCell>
        <mxCell id="kelTFFc9wOcEyzuVwa0B-16" value="CAN&lt;div&gt;Bus&lt;/div&gt;" style="edgeLabel;html=1;align=center;verticalAlign=middle;resizable=0;points=[];" vertex="1" connectable="0" parent="kelTFFc9wOcEyzuVwa0B-13">
          <mxGeometry x="-0.1816" y="2" relative="1" as="geometry">
            <mxPoint as="offset" />
          </mxGeometry>
        </mxCell>
        <mxCell id="kelTFFc9wOcEyzuVwa0B-2" value="&lt;div&gt;&amp;nbsp;Node Controller Core Library&lt;/div&gt;&lt;div&gt;(Arduino c++)&lt;/div&gt;" style="whiteSpace=wrap;html=1;aspect=fixed;" vertex="1" parent="1">
          <mxGeometry x="445" y="380" width="80" height="80" as="geometry" />
        </mxCell>
        <mxCell id="kelTFFc9wOcEyzuVwa0B-4" value="&lt;div&gt;&amp;nbsp;Device Specific Firmware&lt;br&gt;&lt;/div&gt;&lt;div&gt;(Arduino c++)&lt;/div&gt;" style="whiteSpace=wrap;html=1;aspect=fixed;" vertex="1" parent="1">
          <mxGeometry x="445" y="520" width="80" height="80" as="geometry" />
        </mxCell>
        <mxCell id="kelTFFc9wOcEyzuVwa0B-6" value="SMTP Mail Server&lt;div&gt;(Gmail)&lt;/div&gt;" style="whiteSpace=wrap;html=1;aspect=fixed;" vertex="1" parent="1">
          <mxGeometry x="280" y="520" width="80" height="80" as="geometry" />
        </mxCell>
        <mxCell id="kelTFFc9wOcEyzuVwa0B-10" style="edgeStyle=orthogonalEdgeStyle;rounded=0;orthogonalLoop=1;jettySize=auto;html=1;startArrow=classic;startFill=1;" edge="1" parent="1" source="kelTFFc9wOcEyzuVwa0B-11" target="kelTFFc9wOcEyzuVwa0B-12">
          <mxGeometry relative="1" as="geometry" />
        </mxCell>
        <mxCell id="kelTFFc9wOcEyzuVwa0B-21" value="c++ class" style="edgeLabel;html=1;align=center;verticalAlign=middle;resizable=0;points=[];" vertex="1" connectable="0" parent="kelTFFc9wOcEyzuVwa0B-10">
          <mxGeometry x="-0.046" y="-1" relative="1" as="geometry">
            <mxPoint as="offset" />
          </mxGeometry>
        </mxCell>
        <mxCell id="kelTFFc9wOcEyzuVwa0B-14" style="edgeStyle=orthogonalEdgeStyle;rounded=0;orthogonalLoop=1;jettySize=auto;html=1;" edge="1" parent="1" source="kelTFFc9wOcEyzuVwa0B-11">
          <mxGeometry relative="1" as="geometry">
            <mxPoint x="740" y="420" as="targetPoint" />
          </mxGeometry>
        </mxCell>
        <mxCell id="kelTFFc9wOcEyzuVwa0B-15" value="More as&amp;nbsp;&lt;div&gt;needed&lt;/div&gt;" style="edgeLabel;html=1;align=center;verticalAlign=middle;resizable=0;points=[];" vertex="1" connectable="0" parent="kelTFFc9wOcEyzuVwa0B-14">
          <mxGeometry x="-0.2211" y="2" relative="1" as="geometry">
            <mxPoint x="5" y="2" as="offset" />
          </mxGeometry>
        </mxCell>
        <mxCell id="kelTFFc9wOcEyzuVwa0B-11" value="&lt;div&gt;&amp;nbsp;Node Controller Core Library&lt;/div&gt;&lt;div&gt;(Arduino c++)&lt;/div&gt;" style="whiteSpace=wrap;html=1;aspect=fixed;" vertex="1" parent="1">
          <mxGeometry x="570" y="380" width="80" height="80" as="geometry" />
        </mxCell>
        <mxCell id="kelTFFc9wOcEyzuVwa0B-12" value="&lt;div&gt;&amp;nbsp;Device Specific Firmware&lt;br&gt;&lt;/div&gt;&lt;div&gt;(Arduino c++)&lt;/div&gt;" style="whiteSpace=wrap;html=1;aspect=fixed;" vertex="1" parent="1">
          <mxGeometry x="570" y="520" width="80" height="80" as="geometry" />
        </mxCell>
        <mxCell id="kelTFFc9wOcEyzuVwa0B-17" value="MQTT Broker&lt;div&gt;(Hivemq.com)&lt;/div&gt;" style="whiteSpace=wrap;html=1;aspect=fixed;" vertex="1" parent="1">
          <mxGeometry x="280" y="230" width="80" height="80" as="geometry" />
        </mxCell>
        <mxCell id="kelTFFc9wOcEyzuVwa0B-23" style="edgeStyle=orthogonalEdgeStyle;rounded=0;orthogonalLoop=1;jettySize=auto;html=1;startArrow=classic;startFill=1;" edge="1" parent="1" source="kelTFFc9wOcEyzuVwa0B-22" target="kelTFFc9wOcEyzuVwa0B-17">
          <mxGeometry relative="1" as="geometry" />
        </mxCell>
        <mxCell id="kelTFFc9wOcEyzuVwa0B-25" value="Web Sockets" style="edgeLabel;html=1;align=center;verticalAlign=middle;resizable=0;points=[];" vertex="1" connectable="0" parent="kelTFFc9wOcEyzuVwa0B-23">
          <mxGeometry x="-0.0889" y="-1" relative="1" as="geometry">
            <mxPoint x="4" y="-1" as="offset" />
          </mxGeometry>
        </mxCell>
        <mxCell id="kelTFFc9wOcEyzuVwa0B-22" value="Web App&lt;div&gt;(.net Blazor)&lt;/div&gt;&lt;div&gt;(.net c# web assembly)&lt;span style=&quot;white-space: pre;&quot;&gt;&#x9;&lt;/span&gt;&lt;/div&gt;&lt;div&gt;&lt;span style=&quot;white-space: pre;&quot;&gt;(Hosted on GitHub.com)&lt;/span&gt;&lt;/div&gt;" style="whiteSpace=wrap;html=1;aspect=fixed;" vertex="1" parent="1">
          <mxGeometry x="50" y="310" width="140" height="140" as="geometry" />
        </mxCell>
      </root>
    </mxGraphModel>
  </diagram>
</mxfile>
